<svg width="200" height="200" viewBox="0 0 200 200" fill="none" xmlns="http://www.w3.org/2000/svg">
  <rect width="200" height="200" rx="100" fill="#F8F5F0"/>
  <circle cx="100" cy="80" r="26" fill="#D4A373" opacity="0.2" stroke="#D4A373" stroke-width="2"/>
  <path d="M72 108 L78 170 L100 176 L122 170 L128 108" fill="#D4A373" opacity="0.12"/>
  <path d="M64 112 L74 140 L80 136 L72 106" fill="#D4A373" opacity="0.08"/>
  <path d="M136 112 L126 140 L120 136 L128 106" fill="#D4A373" opacity="0.08"/>
  <circle cx="100" cy="80" r="3" fill="#D4A373" opacity="0.5"/>
  <path d="M85 78 L95 78 M105 78 L115 78" stroke="#D4A373" stroke-width="2.5" stroke-linecap="round" opacity="0.4"/>
  <path d="M88 86 Q100 93 112 86" stroke="#D4A373" stroke-width="1.5" fill="none" opacity="0.3"/>
  <path d="M70 50 L130 50 L120 40 L80 40 Z" fill="#D4A373" opacity="0.08"/>
  <text x="100" y="158" text-anchor="middle" fill="#D4A373" font-size="11" font-family="serif" opacity="0.6">Khenemet</text>
</svg>
